<mxfile host="65bd71144e" modified="2020-11-01T10:40:41.819Z" agent="5.0 (Windows NT 10.0; Win64; x64) AppleWebKit/537.36 (KHTML, like Gecko) Code/1.50.1 Chrome/83.0.4103.122 Electron/9.2.1 Safari/537.36" etag="AQcgapDGDsRnPIlIXNKR" version="13.6.5">
    <diagram id="vmSYqmSCHUqiOS7xBCO5" name="第 1 页">
        <mxGraphModel dx="509" dy="432" grid="1" gridSize="10" guides="1" tooltips="1" connect="1" arrows="1" fold="1" page="1" pageScale="1" pageWidth="827" pageHeight="1169" background="#CCCCFF" math="0" shadow="0">
            <root>
                <mxCell id="0"/>
                <mxCell id="1" parent="0"/>
                <mxCell id="2" value="" style="shape=crossbar;whiteSpace=wrap;html=1;rounded=1;fillColor=#e51400;fontColor=#ffffff;strokeWidth=5;strokeColor=#66FFFF;" parent="1" vertex="1">
                    <mxGeometry x="10" y="75" width="65" height="20" as="geometry"/>
                </mxCell>
                <mxCell id="4" value="&lt;font style=&quot;font-size: 20px&quot;&gt;16&lt;/font&gt;" style="text;html=1;align=center;verticalAlign=middle;resizable=0;points=[];autosize=1;fontColor=#66FFFF;" parent="1" vertex="1">
                    <mxGeometry x="22.5" y="65" width="40" height="20" as="geometry"/>
                </mxCell>
                <mxCell id="9" value="" style="shape=crossbar;whiteSpace=wrap;html=1;rounded=1;fillColor=#e51400;fontColor=#ffffff;strokeWidth=5;strokeColor=#66FFFF;" parent="1" vertex="1">
                    <mxGeometry x="75" y="75" width="65" height="20" as="geometry"/>
                </mxCell>
                <mxCell id="10" value="&lt;font style=&quot;font-size: 20px&quot; color=&quot;#66ffff&quot;&gt;16&lt;/font&gt;" style="text;html=1;align=center;verticalAlign=middle;resizable=0;points=[];autosize=1;fontColor=#FF3333;" parent="1" vertex="1">
                    <mxGeometry x="87.5" y="65" width="40" height="20" as="geometry"/>
                </mxCell>
                <mxCell id="13" value="" style="shape=crossbar;whiteSpace=wrap;html=1;rounded=1;fontColor=#ffffff;strokeWidth=5;fillColor=none;strokeColor=#FFFF99;" parent="1" vertex="1">
                    <mxGeometry x="205" y="75" width="65" height="20" as="geometry"/>
                </mxCell>
                <mxCell id="14" value="&lt;font style=&quot;font-size: 20px&quot; color=&quot;#ffff99&quot;&gt;1E&lt;/font&gt;" style="text;html=1;align=center;verticalAlign=middle;resizable=0;points=[];autosize=1;fontColor=#FF3333;" parent="1" vertex="1">
                    <mxGeometry x="217.5" y="65" width="40" height="20" as="geometry"/>
                </mxCell>
                <mxCell id="16" value="" style="shape=crossbar;whiteSpace=wrap;html=1;rounded=1;fontColor=#ffffff;strokeWidth=5;fillColor=none;strokeColor=#FFFF99;" parent="1" vertex="1">
                    <mxGeometry x="140" y="75" width="65" height="20" as="geometry"/>
                </mxCell>
                <mxCell id="17" value="&lt;font style=&quot;font-size: 20px&quot; color=&quot;#ffff99&quot;&gt;1E&lt;/font&gt;" style="text;html=1;align=center;verticalAlign=middle;resizable=0;points=[];autosize=1;fontColor=#FF3333;" parent="1" vertex="1">
                    <mxGeometry x="152.5" y="65" width="40" height="20" as="geometry"/>
                </mxCell>
                <mxCell id="22" value="" style="shape=crossbar;whiteSpace=wrap;html=1;rounded=1;fontColor=#ffffff;strokeWidth=5;fillColor=none;strokeColor=#FFFF99;" parent="1" vertex="1">
                    <mxGeometry x="335" y="75" width="65" height="20" as="geometry"/>
                </mxCell>
                <mxCell id="23" value="&lt;font style=&quot;font-size: 20px&quot; color=&quot;#ffff99&quot;&gt;1E&lt;/font&gt;" style="text;html=1;align=center;verticalAlign=middle;resizable=0;points=[];autosize=1;fontColor=#FF3333;" parent="1" vertex="1">
                    <mxGeometry x="347.5" y="65" width="40" height="20" as="geometry"/>
                </mxCell>
                <mxCell id="24" value="" style="shape=crossbar;whiteSpace=wrap;html=1;rounded=1;fontColor=#ffffff;strokeWidth=5;fillColor=none;strokeColor=#FF3333;" parent="1" vertex="1">
                    <mxGeometry x="270" y="75" width="65" height="20" as="geometry"/>
                </mxCell>
                <mxCell id="25" value="&lt;font style=&quot;font-size: 20px&quot;&gt;F0&lt;/font&gt;" style="text;html=1;align=center;verticalAlign=middle;resizable=0;points=[];autosize=1;fontColor=#FF3333;" parent="1" vertex="1">
                    <mxGeometry x="282.5" y="65" width="40" height="20" as="geometry"/>
                </mxCell>
                <mxCell id="28" value="" style="shape=crossbar;whiteSpace=wrap;html=1;rounded=1;fillColor=#e51400;fontColor=#ffffff;strokeWidth=5;strokeColor=#66FFFF;" parent="1" vertex="1">
                    <mxGeometry x="670" y="75" width="65" height="20" as="geometry"/>
                </mxCell>
                <mxCell id="29" value="&lt;font style=&quot;font-size: 20px&quot; color=&quot;#66ffff&quot;&gt;16&lt;/font&gt;" style="text;html=1;align=center;verticalAlign=middle;resizable=0;points=[];autosize=1;fontColor=#FF3333;" parent="1" vertex="1">
                    <mxGeometry x="682.5" y="65" width="40" height="20" as="geometry"/>
                </mxCell>
                <mxCell id="30" value="" style="shape=crossbar;whiteSpace=wrap;html=1;rounded=1;fontColor=#ffffff;strokeWidth=5;fillColor=none;strokeColor=#FF3333;" parent="1" vertex="1">
                    <mxGeometry x="605" y="75" width="65" height="20" as="geometry"/>
                </mxCell>
                <mxCell id="31" value="&lt;font style=&quot;font-size: 20px&quot;&gt;F0&lt;/font&gt;" style="text;html=1;align=center;verticalAlign=middle;resizable=0;points=[];autosize=1;fontColor=#FF3333;" parent="1" vertex="1">
                    <mxGeometry x="617.5" y="65" width="40" height="20" as="geometry"/>
                </mxCell>
                <mxCell id="32" value="" style="shape=crossbar;whiteSpace=wrap;html=1;rounded=1;fillColor=#e51400;fontColor=#ffffff;strokeWidth=5;strokeColor=#66FFFF;" parent="1" vertex="1">
                    <mxGeometry x="400" y="75" width="65" height="20" as="geometry"/>
                </mxCell>
                <mxCell id="33" value="&lt;font style=&quot;font-size: 20px&quot;&gt;16&lt;/font&gt;" style="text;html=1;align=center;verticalAlign=middle;resizable=0;points=[];autosize=1;fontColor=#66FFFF;" parent="1" vertex="1">
                    <mxGeometry x="412.5" y="65" width="40" height="20" as="geometry"/>
                </mxCell>
                <mxCell id="34" value="" style="shape=crossbar;whiteSpace=wrap;html=1;rounded=1;fillColor=#e51400;fontColor=#ffffff;strokeWidth=5;strokeColor=#66FFFF;" parent="1" vertex="1">
                    <mxGeometry x="540" y="75" width="65" height="20" as="geometry"/>
                </mxCell>
                <mxCell id="35" value="&lt;font style=&quot;font-size: 20px&quot; color=&quot;#66ffff&quot;&gt;16&lt;/font&gt;" style="text;html=1;align=center;verticalAlign=middle;resizable=0;points=[];autosize=1;fontColor=#FF3333;" parent="1" vertex="1">
                    <mxGeometry x="552.5" y="65" width="40" height="20" as="geometry"/>
                </mxCell>
                <mxCell id="37" value="" style="ellipse;html=1;aspect=fixed;strokeWidth=5;labelBackgroundColor=none;labelBorderColor=none;noLabel=1;fontColor=none;whiteSpace=wrap;fillColor=#FFFF99;strokeColor=#FFFF99;" parent="1" vertex="1">
                    <mxGeometry x="474" y="80" width="10" height="10" as="geometry"/>
                </mxCell>
                <mxCell id="38" value="" style="ellipse;html=1;aspect=fixed;strokeWidth=5;labelBackgroundColor=none;labelBorderColor=none;noLabel=1;fontColor=none;whiteSpace=wrap;fillColor=#FFFF99;strokeColor=#FFFF99;" parent="1" vertex="1">
                    <mxGeometry x="499" y="80" width="10" height="10" as="geometry"/>
                </mxCell>
                <mxCell id="40" value="" style="ellipse;html=1;aspect=fixed;strokeWidth=5;labelBackgroundColor=none;labelBorderColor=none;noLabel=1;fontColor=none;whiteSpace=wrap;fillColor=#FFFF99;strokeColor=#FFFF99;" parent="1" vertex="1">
                    <mxGeometry x="524" y="80" width="10" height="10" as="geometry"/>
                </mxCell>
                <mxCell id="41" value="" style="shape=curlyBracket;whiteSpace=wrap;html=1;rounded=1;labelBackgroundColor=none;strokeWidth=3;fontColor=none;rotation=90;fillColor=#FFFF33;strokeColor=#FFFF33;" parent="1" vertex="1">
                    <mxGeometry x="404" y="-30" width="20" height="160" as="geometry"/>
                </mxCell>
                <mxCell id="43" value="" style="shape=curlyBracket;whiteSpace=wrap;html=1;rounded=1;labelBackgroundColor=none;strokeWidth=3;fontColor=none;rotation=90;fillColor=#FF3333;strokeColor=#FF3333;" parent="1" vertex="1">
                    <mxGeometry x="292.5" y="17.5" width="20" height="65" as="geometry"/>
                </mxCell>
                <mxCell id="44" value="&lt;font color=&quot;#ff3333&quot; style=&quot;font-size: 14px;&quot;&gt;pressed = 0&lt;/font&gt;" style="text;html=1;strokeColor=none;fillColor=none;align=center;verticalAlign=middle;whiteSpace=wrap;rounded=0;labelBackgroundColor=none;fontColor=none;strokeWidth=8;fontSize=14;" parent="1" vertex="1">
                    <mxGeometry x="250" y="17.5" width="90" height="20" as="geometry"/>
                </mxCell>
                <mxCell id="45" value="&lt;font style=&quot;font-size: 14px&quot; color=&quot;#ffff33&quot;&gt;key_off = 1&lt;/font&gt;" style="text;html=1;strokeColor=none;fillColor=none;align=center;verticalAlign=middle;whiteSpace=wrap;rounded=0;labelBackgroundColor=none;fontColor=none;strokeWidth=8;fontSize=14;" parent="1" vertex="1">
                    <mxGeometry x="362.5" y="15" width="90" height="20" as="geometry"/>
                </mxCell>
                <mxCell id="46" value="" style="shape=curlyBracket;whiteSpace=wrap;html=1;rounded=1;labelBackgroundColor=none;strokeWidth=3;fontColor=none;rotation=90;fillColor=#FF3333;strokeColor=#FF3333;" parent="1" vertex="1">
                    <mxGeometry x="632.5" y="17.5" width="20" height="65" as="geometry"/>
                </mxCell>
                <mxCell id="47" value="&lt;font color=&quot;#ff3333&quot; style=&quot;font-size: 14px;&quot;&gt;pressed = 0&lt;/font&gt;" style="text;html=1;strokeColor=none;fillColor=none;align=center;verticalAlign=middle;whiteSpace=wrap;rounded=0;labelBackgroundColor=none;fontColor=none;strokeWidth=8;fontSize=14;" parent="1" vertex="1">
                    <mxGeometry x="590" y="17.5" width="90" height="20" as="geometry"/>
                </mxCell>
                <mxCell id="48" value="" style="shape=curlyBracket;whiteSpace=wrap;html=1;rounded=1;labelBackgroundColor=none;strokeWidth=3;fontColor=none;rotation=90;fillColor=#FFFF33;strokeColor=#FFFF33;" parent="1" vertex="1">
                    <mxGeometry x="710" y="7.5" width="20" height="85" as="geometry"/>
                </mxCell>
                <mxCell id="49" value="&lt;font style=&quot;font-size: 14px&quot; color=&quot;#ffff33&quot;&gt;key_off = 1&lt;/font&gt;" style="text;html=1;strokeColor=none;fillColor=none;align=center;verticalAlign=middle;whiteSpace=wrap;rounded=0;labelBackgroundColor=none;fontColor=none;strokeWidth=8;fontSize=14;" parent="1" vertex="1">
                    <mxGeometry x="680" y="15" width="90" height="20" as="geometry"/>
                </mxCell>
                <mxCell id="52" value="" style="ellipse;html=1;aspect=fixed;strokeWidth=5;labelBackgroundColor=none;labelBorderColor=none;noLabel=1;fontColor=none;whiteSpace=wrap;fillColor=#FFFF99;strokeColor=#FFFF99;" parent="1" vertex="1">
                    <mxGeometry x="740" y="80" width="10" height="10" as="geometry"/>
                </mxCell>
                <mxCell id="53" value="" style="ellipse;html=1;aspect=fixed;strokeWidth=5;labelBackgroundColor=none;labelBorderColor=none;noLabel=1;fontColor=none;whiteSpace=wrap;fillColor=#FFFF99;strokeColor=#FFFF99;" parent="1" vertex="1">
                    <mxGeometry x="765" y="80" width="10" height="10" as="geometry"/>
                </mxCell>
                <mxCell id="54" value="" style="ellipse;html=1;aspect=fixed;strokeWidth=5;labelBackgroundColor=none;labelBorderColor=none;noLabel=1;fontColor=none;whiteSpace=wrap;fillColor=#FFFF99;strokeColor=#FFFF99;" parent="1" vertex="1">
                    <mxGeometry x="790" y="80" width="10" height="10" as="geometry"/>
                </mxCell>
                <mxCell id="55" value="" style="rounded=0;whiteSpace=wrap;html=1;fillColor=none;strokeColor=none;" vertex="1" parent="1">
                    <mxGeometry y="10" width="810" height="90" as="geometry"/>
                </mxCell>
            </root>
        </mxGraphModel>
    </diagram>
</mxfile>